<svg width="58" height="35" viewBox="0 0 58 35" fill="none" xmlns="http://www.w3.org/2000/svg">
<path fill-rule="evenodd" clip-rule="evenodd" d="M18.1579 31.0694C18.088 30.9429 17.9552 30.8585 17.8153 30.8375L11.7953 30.001C10.9493 29.8815 10.3201 29.1575 10.3201 28.3V21.8544C10.3201 21.4889 10.1732 21.1375 9.90754 20.8844L6.7612 17.8831H0.0629883C0.125915 18.108 0.251769 18.3189 0.433557 18.4875L4.71258 22.4167C4.98526 22.6698 5.14608 23.0283 5.14608 23.4008V32.3417C5.14608 33.2414 5.83827 33.9864 6.72624 34.0567L19.5843 34.9986C19.9618 35.0267 20.2205 34.619 20.0248 34.2887L18.1579 31.0694Z" fill="url(#paint0_linear_2_5147)"/>
<path fill-rule="evenodd" clip-rule="evenodd" d="M6.76819 17.1169L9.91453 14.1226C10.1802 13.8695 10.3271 13.5181 10.3271 13.1526V6.707C10.3271 5.84947 10.9563 5.12548 11.8023 5.00599L17.8223 4.16954C17.9692 4.14845 18.095 4.06411 18.1649 3.93759L20.0318 0.725343C20.2205 0.394981 19.9688 -0.0126996 19.5913 0.0154163L6.72624 0.95027C5.83128 1.01353 5.14608 1.76563 5.14608 2.66534V11.6062C5.14608 11.9787 4.98526 12.3372 4.71258 12.5903L0.433557 16.5195C0.251769 16.6881 0.132907 16.899 0.0629883 17.1239L6.76819 17.1169Z" fill="url(#paint1_linear_2_5147)"/>
<path fill-rule="evenodd" clip-rule="evenodd" d="M10.3759 28.7217C10.3619 28.6585 10.3479 28.5952 10.3409 28.532C10.3409 28.5249 10.3409 28.5109 10.3339 28.5038C10.3269 28.4406 10.3199 28.3703 10.3199 28.3V21.8544C10.3199 21.6717 10.285 21.4889 10.2151 21.3273C10.1801 21.2429 10.1381 21.1656 10.0822 21.0953C10.0333 21.018 9.97034 20.9547 9.90741 20.8915L6.62822 17.7636C6.59327 17.7284 6.57229 17.6933 6.55131 17.6511H0.013916C0.0488754 17.9604 0.181721 18.2626 0.433428 18.4946L4.71245 22.4238C4.98513 22.6768 5.14595 23.0353 5.14595 23.4078V32.3487C5.14595 32.5736 5.1879 32.7915 5.26481 32.9883C5.32074 33.1359 5.40465 33.2765 5.49554 33.396C5.5305 33.4382 5.55847 33.4803 5.60042 33.5155C5.88709 33.8248 6.27863 34.0286 6.72611 34.0567L14.2494 34.605C11.2988 32.7704 10.5577 29.8112 10.3759 28.7217Z" fill="url(#paint2_linear_2_5147)"/>
<path d="M14.2563 34.605C13.7459 34.2816 13.2565 33.9232 12.823 33.5014C12.3895 33.0726 12.0049 32.6087 11.6693 32.1027C11.3337 31.5966 11.068 31.0483 10.8513 30.486C10.6345 29.9166 10.4667 29.3332 10.3758 28.7287C10.3619 28.6585 10.3479 28.5882 10.3409 28.5179C10.3339 28.4476 10.3339 28.3773 10.3269 28.307C10.3339 28.3773 10.3339 28.4476 10.3409 28.5179C10.3549 28.5882 10.3689 28.6585 10.3828 28.7287C10.5996 29.9166 11.0401 31.0694 11.7043 32.0816C12.0329 32.5877 12.4175 33.0586 12.844 33.4874C13.2705 33.9021 13.7529 34.2676 14.2563 34.605Z" fill="url(#paint3_linear_2_5147)"/>
<path fill-rule="evenodd" clip-rule="evenodd" d="M7.01293 16.8779L9.90756 14.1155C9.97049 14.0522 10.0334 13.982 10.0824 13.9117C10.1313 13.8343 10.1733 13.757 10.2152 13.6797C10.2851 13.518 10.3201 13.3353 10.3201 13.1525V6.70697C10.3201 6.63668 10.3271 6.57342 10.3341 6.50313C10.3341 6.4961 10.3341 6.48204 10.3411 6.47501C10.3481 6.41175 10.362 6.34849 10.376 6.28523C10.5508 5.19574 11.2989 2.23654 14.2495 0.401978L6.72626 0.950237C6.27878 0.985382 5.88723 1.18219 5.60057 1.49147C5.56561 1.52661 5.53065 1.56879 5.49569 1.61096C5.40479 1.73748 5.32089 1.87103 5.26496 2.01864C5.18805 2.21545 5.1461 2.43335 5.1461 2.65828V11.5991C5.1461 11.9717 4.98528 12.3301 4.7126 12.5832L0.433572 16.5124C0.31471 16.6178 0.230807 16.7443 0.160889 16.8779H7.01293Z" fill="url(#paint4_linear_2_5147)"/>
<path d="M10.3269 6.70001C10.3339 6.62972 10.3339 6.55943 10.3409 6.48914C10.3479 6.41885 10.3619 6.34856 10.3758 6.27827C10.4667 5.68081 10.6345 5.09037 10.8513 4.52103C11.068 3.95168 11.3407 3.41045 11.6693 2.89733C12.0049 2.39125 12.3895 1.92031 12.823 1.49857C13.2565 1.07683 13.7459 0.711323 14.2563 0.39502C13.7529 0.73241 13.2705 1.09792 12.844 1.51966C12.4175 1.94842 12.0329 2.41936 11.7043 2.92545C11.0471 3.93762 10.5996 5.09037 10.3828 6.27827C10.3689 6.34856 10.3549 6.41885 10.3409 6.48914C10.3339 6.55943 10.3269 6.62972 10.3269 6.70001Z" fill="url(#paint5_linear_2_5147)"/>
<path fill-rule="evenodd" clip-rule="evenodd" d="M10.327 28.1032V21.8544C10.327 21.6716 10.292 21.4889 10.2221 21.3272C10.1872 21.2429 10.1452 21.1656 10.0893 21.0953C10.0403 21.018 9.9774 20.9547 9.91447 20.8914L6.63528 17.7635C6.56537 17.6933 6.52341 17.6019 6.52341 17.5105C6.52341 17.4191 6.55837 17.3277 6.63528 17.2575L9.91447 14.1296C9.9774 14.0663 10.0403 13.996 10.0893 13.9257C10.1382 13.8484 10.1802 13.7711 10.2221 13.6938C10.292 13.5321 10.327 13.3494 10.327 13.1666V6.91785C7.18065 10.8611 4.71252 12.6113 4.71252 12.6113L0.433496 16.5405C0.146829 16.8076 0 17.1661 0 17.5246C0 17.883 0.146829 18.2485 0.433496 18.5086L4.71252 22.4378C4.71252 22.4097 7.18065 24.1529 10.327 28.1032Z" fill="url(#paint6_linear_2_5147)"/>
<path d="M4.7124 22.4097C5.25777 22.8033 5.76118 23.2321 6.25761 23.6819C6.75403 24.1318 7.22948 24.5957 7.69793 25.0736C8.1594 25.5586 8.61387 26.0507 9.04737 26.5567C9.27111 26.8028 9.48086 27.0628 9.69761 27.3229L10.3269 28.1031C9.90037 27.59 9.47387 27.0769 9.03338 26.5778C8.59289 26.0788 8.13842 25.5868 7.66997 25.1088C7.2085 24.6308 6.73305 24.1599 6.23663 23.71C5.99192 23.4851 5.74021 23.2602 5.4885 23.0493C5.23679 22.8244 4.97809 22.6135 4.7124 22.4097Z" fill="url(#paint7_linear_2_5147)"/>
<path fill-rule="evenodd" clip-rule="evenodd" d="M4.71252 12.5904L0.433496 16.5196C0.146829 16.7867 0 17.1451 0 17.5036C0 17.8621 0.146829 18.2276 0.433496 18.4877L3.47496 21.2782C4.62862 19.0219 6.62829 17.2436 6.62829 17.2436L9.90748 14.1157C9.9704 14.0524 10.0333 13.9821 10.0823 13.9118C10.1312 13.8345 10.1732 13.7572 10.2151 13.6799C10.285 13.5182 10.32 13.3354 10.32 13.1527V6.90393C7.18065 10.8472 4.71252 12.5904 4.71252 12.5904Z" fill="url(#paint8_linear_2_5147)"/>
<path d="M10.3269 6.89685L9.69761 7.67707C9.48086 7.93011 9.27111 8.19018 9.04737 8.44322C8.60688 8.94931 8.1594 9.44134 7.69793 9.92633C7.22948 10.4043 6.75403 10.8682 6.25761 11.3181C5.76118 11.7679 5.25078 12.2037 4.7124 12.5903C4.97809 12.3935 5.23679 12.1756 5.4885 11.9577C5.74021 11.7398 5.99192 11.5219 6.23663 11.297C6.72606 10.8471 7.20151 10.3762 7.66997 9.89822C8.13143 9.42025 8.59289 8.92822 9.03338 8.42916C9.46688 7.92308 9.90037 7.40997 10.3269 6.89685Z" fill="url(#paint9_linear_2_5147)"/>
<path fill-rule="evenodd" clip-rule="evenodd" d="M39.1685 3.93057C39.2384 4.0571 39.3713 4.14144 39.5111 4.16253L45.5311 4.99898C46.3771 5.11847 47.0064 5.84245 47.0064 6.69999V13.1456C47.0064 13.5111 47.1532 13.8625 47.4189 14.1156L50.5653 17.1169H57.2635C57.2006 16.892 57.0747 16.6811 56.8929 16.5124L52.6139 12.5832C52.3412 12.3302 52.1804 11.9717 52.1804 11.5992V2.65833C52.1804 1.75862 51.4882 1.01355 50.6002 0.943261L37.7422 0.00137818C37.3646 -0.0267377 37.1059 0.380943 37.3017 0.711305L39.1685 3.93057Z" fill="url(#paint10_linear_2_5147)"/>
<path fill-rule="evenodd" clip-rule="evenodd" d="M50.5586 17.8831L47.4122 20.8775C47.1465 21.1305 46.9997 21.482 46.9997 21.8475V28.293C46.9997 29.1506 46.3705 29.8745 45.5244 29.994L39.5114 30.8375C39.3646 30.8586 39.2387 30.9429 39.1688 31.0695L37.302 34.2817C37.1132 34.6121 37.3649 35.0197 37.7425 34.9916L50.6005 34.0498C51.4955 33.9865 52.1807 33.2344 52.1807 32.3347V23.3938C52.1807 23.0213 52.3415 22.6628 52.6142 22.4098L56.8932 18.4806C57.075 18.3119 57.1939 18.101 57.2638 17.8761L50.5586 17.8831Z" fill="url(#paint11_linear_2_5147)"/>
<path fill-rule="evenodd" clip-rule="evenodd" d="M46.9502 6.27759C46.9641 6.34085 46.9781 6.40411 46.9851 6.46737C46.9851 6.4744 46.9851 6.48846 46.9921 6.49549C46.9991 6.55875 47.0061 6.62904 47.0061 6.69933V13.1449C47.0061 13.3276 47.0411 13.5104 47.111 13.6721C47.1459 13.7564 47.1879 13.8337 47.2438 13.904C47.2998 13.9743 47.3557 14.0446 47.4186 14.1079L50.6978 17.2358C50.7328 17.2709 50.7537 17.306 50.7747 17.3482H57.3121C57.2771 17.0389 57.1443 16.7367 56.8926 16.5047L52.6136 12.5755C52.3409 12.3225 52.1801 11.964 52.1801 11.5915V2.65767C52.1801 2.43274 52.1381 2.21484 52.0612 2.01803C52.0053 1.87042 51.9214 1.72984 51.8305 1.61035C51.7955 1.56818 51.7676 1.526 51.7256 1.49086C51.4389 1.18158 51.0474 0.977743 50.5999 0.949627L43.0767 0.401367C46.0272 2.2289 46.7684 5.1881 46.9502 6.27759Z" fill="url(#paint12_linear_2_5147)"/>
<path d="M43.0701 0.39502C43.5805 0.718352 44.0699 1.07683 44.5034 1.49857C44.9369 1.92734 45.3214 2.39125 45.6571 2.89733C45.9927 3.40342 46.2584 3.95168 46.4751 4.514C46.6919 5.08334 46.8597 5.66675 46.9506 6.27124C46.9645 6.34153 46.9785 6.41182 46.9855 6.48211C46.9925 6.5524 46.9925 6.62269 46.9995 6.69298C46.9925 6.62269 46.9925 6.5524 46.9855 6.48211C46.9715 6.41182 46.9575 6.34153 46.9436 6.27124C46.7268 5.08334 46.2863 3.93059 45.6221 2.91842C45.2935 2.41233 44.9089 1.94139 44.4824 1.51263C44.0559 1.09792 43.5735 0.725381 43.0701 0.39502Z" fill="url(#paint13_linear_2_5147)"/>
<path fill-rule="evenodd" clip-rule="evenodd" d="M50.3135 18.1221L47.4189 20.8845C47.3559 20.9478 47.293 21.0181 47.2441 21.0884C47.1951 21.1657 47.1532 21.243 47.1112 21.3203C47.0413 21.482 47.0063 21.6647 47.0063 21.8475V28.2931C47.0063 28.3634 46.9993 28.4266 46.9924 28.4969C46.9924 28.5039 46.9924 28.518 46.9854 28.525C46.9784 28.5883 46.9644 28.6515 46.9504 28.7148C46.7756 29.8043 46.0275 32.7635 43.0769 34.5981L50.6002 34.0498C51.0476 34.0146 51.4392 33.8178 51.7258 33.5086C51.7608 33.4734 51.7958 33.4312 51.8307 33.3891C51.9286 33.2625 52.0055 33.129 52.0615 32.9814C52.1384 32.7846 52.1803 32.5667 52.1803 32.3418V23.3939C52.1803 23.0213 52.3411 22.6629 52.6138 22.4098L56.8928 18.4806C57.0117 18.3752 57.0956 18.2487 57.1655 18.1151L50.3135 18.1221Z" fill="url(#paint14_linear_2_5147)"/>
<path d="M46.9995 28.3C46.9925 28.3703 46.9925 28.4406 46.9855 28.5109C46.9785 28.5812 46.9645 28.6515 46.9506 28.7218C46.8597 29.3192 46.6919 29.9097 46.4751 30.479C46.2584 31.0484 45.9857 31.5896 45.6571 32.1027C45.3214 32.6088 44.9369 33.0797 44.5034 33.5015C44.0699 33.9232 43.5805 34.2887 43.0701 34.605C43.5735 34.2676 44.0559 33.9021 44.4824 33.4804C44.9089 33.0516 45.2935 32.5807 45.6221 32.0746C46.2793 31.0624 46.7268 29.9097 46.9436 28.7218C46.9575 28.6515 46.9715 28.5812 46.9855 28.5109C46.9925 28.4406 46.9995 28.3703 46.9995 28.3Z" fill="url(#paint15_linear_2_5147)"/>
<path fill-rule="evenodd" clip-rule="evenodd" d="M46.9993 6.89673V13.1455C46.9993 13.3282 47.0342 13.511 47.1041 13.6727C47.1391 13.757 47.1811 13.8343 47.237 13.9046C47.2929 13.9749 47.3489 14.0452 47.4118 14.1085L50.691 17.2363C50.7609 17.3066 50.8028 17.398 50.8028 17.4894C50.8028 17.5808 50.7679 17.6721 50.691 17.7424L47.4118 20.8703C47.3489 20.9336 47.2859 21.0039 47.237 21.0742C47.188 21.1515 47.1461 21.2288 47.1041 21.3061C47.0342 21.4678 46.9993 21.6505 46.9993 21.8333V28.0821C50.1456 24.1388 52.6137 22.3886 52.6137 22.3886L56.8928 18.4594C57.1794 18.1923 57.3263 17.8338 57.3263 17.4753C57.3263 17.1169 57.1794 16.7513 56.8928 16.4913L52.6137 12.5621C52.6137 12.5902 50.1456 10.847 46.9993 6.89673Z" fill="url(#paint16_linear_2_5147)"/>
<path d="M52.6137 12.5902C52.0684 12.1966 51.565 11.7678 51.0685 11.3179C50.5721 10.8681 50.0967 10.4042 49.6282 9.92621C49.1667 9.44121 48.7123 8.94919 48.2788 8.4431C48.055 8.19709 47.8453 7.93702 47.6285 7.67694L46.9993 6.89673C47.4258 7.40984 47.8523 7.92296 48.2928 8.42201C48.7333 8.92107 49.1877 9.4131 49.6562 9.89107C50.1176 10.369 50.5931 10.84 51.0895 11.2898C51.3342 11.5148 51.5859 11.7397 51.8376 11.9506C52.0893 12.1755 52.348 12.3864 52.6137 12.5902Z" fill="url(#paint17_linear_2_5147)"/>
<path fill-rule="evenodd" clip-rule="evenodd" d="M52.614 22.4097L56.893 18.4805C57.1797 18.2134 57.3265 17.855 57.3265 17.4965C57.3265 17.138 57.1797 16.7725 56.893 16.5124L53.8445 13.7219C52.6909 15.9782 50.6912 17.7566 50.6912 17.7566L47.412 20.8844C47.3491 20.9477 47.2862 21.018 47.2372 21.0883C47.1883 21.1656 47.1463 21.2429 47.1044 21.3202C47.0345 21.4819 46.9995 21.6647 46.9995 21.8474V28.0962C50.1459 24.1529 52.614 22.4097 52.614 22.4097Z" fill="url(#paint18_linear_2_5147)"/>
<path d="M46.9993 28.1031L47.6285 27.3229C47.8453 27.0699 48.055 26.8098 48.2788 26.5567C48.7193 26.0507 49.1667 25.5586 49.6282 25.0736C50.0967 24.5957 50.5721 24.1318 51.0685 23.6819C51.565 23.2321 52.0754 22.7963 52.6137 22.4097C52.348 22.6065 52.0893 22.8244 51.8376 23.0423C51.5859 23.2602 51.3342 23.4781 51.0895 23.703C50.6001 24.1528 50.1246 24.6238 49.6562 25.1018C49.1947 25.5797 48.7333 26.0717 48.2928 26.5708C47.8593 27.0769 47.4258 27.583 46.9993 28.1031Z" fill="url(#paint19_linear_2_5147)"/>
<path d="M44.2446 11.6695C40.9444 8.35186 35.5747 8.35186 32.2745 11.6695L28.6877 15.2824L25.0939 11.6695C21.7937 8.35186 16.424 8.35186 13.1308 11.6695C11.5297 13.2792 10.6487 15.416 10.6487 17.6863C10.6487 19.9567 11.5297 22.0935 13.1308 23.7031C14.7319 25.3128 16.8575 26.1984 19.1158 26.1984C21.3742 26.1984 23.4997 25.3128 25.1009 23.7031L28.6947 20.0902L32.2885 23.7031C33.8897 25.3128 36.0152 26.1984 38.2736 26.1984C40.5319 26.1984 42.6575 25.3128 44.2586 23.7031C45.8597 22.0935 46.7407 19.9567 46.7407 17.6863C46.7267 15.4089 45.8457 13.2721 44.2446 11.6695ZM22.7097 21.2992C20.724 23.2954 17.5007 23.2954 15.515 21.2992C13.5293 19.303 13.5293 16.0626 15.515 14.0664C16.5079 13.0683 17.8084 12.5692 19.1088 12.5692C20.4093 12.5692 21.7168 13.0683 22.7027 14.0664L26.3035 17.6793L22.7097 21.2992ZM41.8604 21.2992C39.8747 23.2954 36.6514 23.2954 34.6658 21.2992L31.0719 17.6793L34.6658 14.0664C36.6514 12.0702 39.8747 12.0702 41.8604 14.0664C43.8461 16.0626 43.8461 19.303 41.8604 21.2992Z" fill="url(#paint20_linear_2_5147)"/>
<path opacity="0.1" d="M31.072 17.6864L28.6877 20.0903L31.9669 18.5861L31.072 17.6864Z" fill="#010101"/>
<path opacity="0.1" d="M28.6876 15.2754L26.3033 17.6863L25.3455 16.7163L28.6876 15.2754Z" fill="#010101"/>
<path d="M43.2024 12.7168C40.4826 9.98252 36.0498 9.98252 33.3229 12.7168L28.6873 17.377L28.3937 17.6792L23.7511 22.3465C21.1921 24.9191 17.0319 24.9191 14.4729 22.3465C11.9139 19.7739 11.9139 15.5916 14.4729 13.019C15.7524 11.7327 17.4304 11.0861 19.1155 11.0861C20.7935 11.0861 22.4786 11.7327 23.7581 13.012L27.3519 16.6249L27.6525 16.3227L24.0587 12.7098C21.3389 9.97549 16.906 9.97549 14.1792 12.7098C11.4524 15.444 11.4594 19.9004 14.1792 22.6417C15.5426 24.0124 17.3325 24.6942 19.1225 24.6942C20.9124 24.6942 22.7023 24.0124 24.0587 22.6417L28.6943 17.9815L28.988 17.6792L33.6306 13.012C36.1896 10.4394 40.3498 10.4394 42.9088 13.012C45.4678 15.5846 45.4678 19.7669 42.9088 22.3395C40.3498 24.9121 36.1896 24.9121 33.6306 22.3395L30.0368 18.7266L29.7361 19.0288L33.3299 22.6417C34.6933 24.0124 36.4833 24.6942 38.2732 24.6942C40.0631 24.6942 41.853 24.0124 43.2164 22.6417C45.9223 19.9145 45.9223 15.4581 43.2024 12.7168Z" fill="white"/>
<defs>
<linearGradient id="paint0_linear_2_5147" x1="16.8516" y1="23.5784" x2="10.1101" y2="26.3191" gradientUnits="userSpaceOnUse">
<stop stop-color="#00B3CE"/>
<stop offset="1" stop-color="#0E497C"/>
</linearGradient>
<linearGradient id="paint1_linear_2_5147" x1="21.4173" y1="6.5906" x2="11.5035" y2="8.22122" gradientUnits="userSpaceOnUse">
<stop stop-color="#03AED0"/>
<stop offset="1" stop-color="#163F6C"/>
</linearGradient>
<linearGradient id="paint2_linear_2_5147" x1="9.78973" y1="34.11" x2="6.42121" y2="23.705" gradientUnits="userSpaceOnUse">
<stop stop-color="#03AED0"/>
<stop offset="1" stop-color="#0A2141"/>
</linearGradient>
<linearGradient id="paint3_linear_2_5147" x1="10.3027" y1="31.453" x2="14.264" y2="31.453" gradientUnits="userSpaceOnUse">
<stop stop-color="#138FCF"/>
<stop offset="1" stop-color="#90D5E1"/>
</linearGradient>
<linearGradient id="paint4_linear_2_5147" x1="12.9688" y1="-0.801601" x2="5.02583" y2="12.1844" gradientUnits="userSpaceOnUse">
<stop stop-color="#00B3CE"/>
<stop offset="1" stop-color="#044F8E"/>
</linearGradient>
<linearGradient id="paint5_linear_2_5147" x1="13.8667" y1="0.14812" x2="9.98021" y2="6.50209" gradientUnits="userSpaceOnUse">
<stop stop-color="#90D5E1"/>
<stop offset="0.9897" stop-color="#08AEBF"/>
</linearGradient>
<linearGradient id="paint6_linear_2_5147" x1="16.0522" y1="22.3584" x2="7.40997" y2="15.1068" gradientUnits="userSpaceOnUse">
<stop stop-color="#03AED0"/>
<stop offset="1" stop-color="#163F6C"/>
</linearGradient>
<linearGradient id="paint7_linear_2_5147" x1="4.69927" y1="25.2576" x2="10.3399" y2="25.2576" gradientUnits="userSpaceOnUse">
<stop stop-color="#005993"/>
<stop offset="1" stop-color="#A6DFF9"/>
</linearGradient>
<linearGradient id="paint8_linear_2_5147" x1="2.01321" y1="16.9825" x2="11.5801" y2="11.3777" gradientUnits="userSpaceOnUse">
<stop stop-color="#00B3CE"/>
<stop offset="1" stop-color="#044F8E"/>
</linearGradient>
<linearGradient id="paint9_linear_2_5147" x1="4.69927" y1="9.74358" x2="10.3399" y2="9.74358" gradientUnits="userSpaceOnUse">
<stop stop-color="#A6DFF9"/>
<stop offset="1" stop-color="#0A71B9"/>
</linearGradient>
<linearGradient id="paint10_linear_2_5147" x1="40.4741" y1="11.4212" x2="47.2156" y2="8.68054" gradientUnits="userSpaceOnUse">
<stop stop-color="#00B3CE"/>
<stop offset="1" stop-color="#0E497C"/>
</linearGradient>
<linearGradient id="paint11_linear_2_5147" x1="35.9087" y1="28.4086" x2="45.8225" y2="26.778" gradientUnits="userSpaceOnUse">
<stop stop-color="#03AED0"/>
<stop offset="1" stop-color="#163F6C"/>
</linearGradient>
<linearGradient id="paint12_linear_2_5147" x1="47.5354" y1="0.889016" x2="50.9039" y2="11.294" gradientUnits="userSpaceOnUse">
<stop stop-color="#03AED0"/>
<stop offset="1" stop-color="#0A2141"/>
</linearGradient>
<linearGradient id="paint13_linear_2_5147" x1="47.0229" y1="3.54751" x2="43.0617" y2="3.54751" gradientUnits="userSpaceOnUse">
<stop stop-color="#138FCF"/>
<stop offset="1" stop-color="#90D5E1"/>
</linearGradient>
<linearGradient id="paint14_linear_2_5147" x1="44.3564" y1="35.801" x2="52.2995" y2="22.8151" gradientUnits="userSpaceOnUse">
<stop stop-color="#00B3CE"/>
<stop offset="1" stop-color="#044F8E"/>
</linearGradient>
<linearGradient id="paint15_linear_2_5147" x1="43.4595" y1="34.8519" x2="47.3459" y2="28.4979" gradientUnits="userSpaceOnUse">
<stop stop-color="#90D5E1"/>
<stop offset="0.9897" stop-color="#08AEBF"/>
</linearGradient>
<linearGradient id="paint16_linear_2_5147" x1="41.2733" y1="12.6412" x2="49.9156" y2="19.8927" gradientUnits="userSpaceOnUse">
<stop stop-color="#03AED0"/>
<stop offset="1" stop-color="#163F6C"/>
</linearGradient>
<linearGradient id="paint17_linear_2_5147" x1="52.6261" y1="9.74346" x2="46.9855" y2="9.74346" gradientUnits="userSpaceOnUse">
<stop stop-color="#005993"/>
<stop offset="1" stop-color="#A6DFF9"/>
</linearGradient>
<linearGradient id="paint18_linear_2_5147" x1="55.3123" y1="18.0168" x2="45.7454" y2="23.6216" gradientUnits="userSpaceOnUse">
<stop stop-color="#00B3CE"/>
<stop offset="1" stop-color="#044F8E"/>
</linearGradient>
<linearGradient id="paint19_linear_2_5147" x1="52.6261" y1="25.2569" x2="46.9855" y2="25.2569" gradientUnits="userSpaceOnUse">
<stop stop-color="#A6DFF9"/>
<stop offset="1" stop-color="#0A71B9"/>
</linearGradient>
<linearGradient id="paint20_linear_2_5147" x1="17.9165" y1="28.5121" x2="39.5732" y2="6.96965" gradientUnits="userSpaceOnUse">
<stop stop-color="#6A4A9E"/>
<stop offset="1" stop-color="#71C9BA"/>
</linearGradient>
</defs>
</svg>
