<svg width="22" height="11" viewBox="0 0 22 11" fill="none" xmlns="http://www.w3.org/2000/svg">
<path d="M20.2735 3.59268H2.47268C2.27787 3.59268 2.08497 3.55847 1.90499 3.49199C1.72502 3.42552 1.56148 3.32808 1.42374 3.20524C1.28599 3.08241 1.17675 2.93659 1.10221 2.77611C1.02766 2.61562 0.989258 2.44361 0.989258 2.2699C1.00209 1.92677 1.16405 1.60154 1.44086 1.36293C1.71768 1.12431 2.08767 0.99102 2.47268 0.991211H20.2735C20.6538 0.991211 21.0186 1.12593 21.2875 1.36573C21.5564 1.60553 21.7075 1.93077 21.7075 2.2699C21.7141 2.44149 21.6819 2.61252 21.6129 2.77278C21.5438 2.93305 21.4392 3.07927 21.3054 3.20271C21.1715 3.32616 21.0112 3.4243 20.8339 3.4913C20.6567 3.5583 20.466 3.59278 20.2735 3.59268Z" fill="white"/>
<path d="M20.2735 10.3831H2.47268C2.08767 10.3833 1.71768 10.25 1.44086 10.0114C1.16405 9.77274 1.00209 9.4475 0.989258 9.10437C1.00209 8.76124 1.16405 8.43601 1.44086 8.1974C1.71768 7.95879 2.08767 7.82549 2.47268 7.82568H20.2735C20.6538 7.82568 21.0186 7.9604 21.2875 8.2002C21.5564 8.44 21.7075 8.76524 21.7075 9.10437C21.7075 9.4435 21.5564 9.76874 21.2875 10.0085C21.0186 10.2483 20.6538 10.3831 20.2735 10.3831Z" fill="white"/>
</svg>
